# xmcd CD database file
#
# Track frame offsets:
#	150
#	39389
#	91229
#	114444
#	131954
#	161905
#	179912
#
# Disc length: 2584 seconds
#
# Revision: 0
# Processed by: cddbd v1.5.1PL2 Copyright (c) Steve Scherf et al.
# Submitted via: CDex 1.51
#
DISCID=610a1607
DTITLE=Dave Brubeck - Brubeck and J and K at Newport
DYEAR=1956
DGENRE=Jazz
TTITLE0=In Your Own Sweet Way*
TTITLE1=Two Part Contention*
TTITLE2=Take the A Train*
TTITLE3=Im in a Dancing Mood*
TTITLE4=Lover Come Back To Me
TTITLE5=True Blue Tromboniums
TTITLE6=NWPT
EXTD=YEAR: 1956
EXTT0=
EXTT1=
EXTT2=
EXTT3=
EXTT4=
EXTT5=
EXTT6=
PLAYORDER=
